<svg width="670" height="46" viewBox="0 0 670 46" fill="none" xmlns="http://www.w3.org/2000/svg">
<path d="M23.1563 45.8043C19.869 45.8043 16.8107 45.2404 13.9811 44.1127C11.1932 42.9433 8.73821 41.3144 6.61608 39.2261C4.53555 37.1378 2.91274 34.7154 1.74764 31.9588C0.582548 29.1605 0 26.1533 0 22.9374C0 19.7214 0.582548 16.7351 1.74764 13.9786C2.91274 11.1802 4.53555 8.7578 6.61608 6.71127C8.6966 4.66473 11.1308 3.07762 13.9187 1.94994C16.7482 0.780494 19.8066 0.19577 23.0938 0.19577C26.5891 0.19577 29.6891 0.75961 32.3938 1.88729C35.1401 3.01497 37.5327 4.56032 39.5716 6.52332L33.018 13.1641C31.8529 11.9111 30.4381 10.9296 28.7737 10.2196C27.1509 9.50959 25.2576 9.15458 23.0938 9.15458C21.1798 9.15458 19.4113 9.48871 17.7885 10.157C16.2073 10.7835 14.8342 11.7023 13.6691 12.9135C12.5456 14.1247 11.651 15.5865 10.9852 17.299C10.361 19.0114 10.0489 20.8908 10.0489 22.9374C10.0489 25.0257 10.361 26.926 10.9852 28.6384C11.651 30.3508 12.5456 31.8126 13.6691 33.0239C14.8342 34.2351 16.2073 35.1748 17.7885 35.8431C19.4113 36.5113 21.1798 36.8454 23.0938 36.8454C25.3408 36.8454 27.2965 36.4904 28.9609 35.7804C30.6254 35.0704 32.0609 34.0889 33.2676 32.8359L39.8837 39.4767C37.7616 41.4397 35.3273 42.9851 32.5811 44.1127C29.8764 45.2404 26.7348 45.8043 23.1563 45.8043Z" fill="black"/>
<path d="M64.5462 45.8669C61.2174 45.8669 58.1382 45.2822 55.3087 44.1127C52.5208 42.9433 50.0658 41.3144 47.9436 39.2261C45.8215 37.1378 44.1779 34.7154 43.0128 31.9588C41.8477 29.1605 41.2651 26.1533 41.2651 22.9374C41.2651 19.6796 41.8477 16.6725 43.0128 13.9159C44.1779 11.1593 45.8007 8.7578 47.8812 6.71127C49.9617 4.62296 52.396 3.01497 55.1839 1.88729C58.0134 0.717842 61.0926 0.133118 64.4214 0.133118C67.7086 0.133118 70.7462 0.717842 73.5341 1.88729C76.3636 3.01497 78.8186 4.62296 80.8992 6.71127C83.0213 8.7578 84.6649 11.1802 85.83 13.9786C86.9951 16.7351 87.5777 19.7423 87.5777 23C87.5777 26.216 86.9951 29.2232 85.83 32.0215C84.6649 34.778 83.0421 37.2005 80.9616 39.2888C78.8811 41.3353 76.426 42.9433 73.5965 44.1127C70.8086 45.2822 67.7919 45.8669 64.5462 45.8669ZM64.4214 36.9081C67.0429 36.9081 69.3315 36.3234 71.2871 35.1539C73.2845 33.9845 74.824 32.3556 75.9059 30.2673C76.9878 28.1372 77.5287 25.6939 77.5287 22.9374C77.5287 20.8491 77.2167 18.9696 76.5925 17.299C75.9683 15.5865 75.0737 14.1247 73.9086 12.9135C72.7435 11.6605 71.3496 10.7208 69.7267 10.0943C68.1455 9.42606 66.3771 9.09193 64.4214 9.09193C61.7999 9.09193 59.4906 9.67665 57.4933 10.8461C55.5376 11.9738 54.0188 13.5818 52.9369 15.6701C51.855 17.7166 51.3141 20.139 51.3141 22.9374C51.3141 25.0257 51.6262 26.926 52.2503 28.6384C52.8745 30.3508 53.7483 31.8335 54.8718 33.0865C56.0369 34.2977 57.4308 35.2375 59.0536 35.9057C60.6765 36.574 62.4657 36.9081 64.4214 36.9081Z" fill="black"/>
<path d="M93.7983 45.1151V0.884907H100.789L118.14 28.0119H114.583L131.872 0.884907H138.925V45.1151H129.126V17.4869L130.873 17.9254L119.576 35.5925H113.085L101.85 17.9254L103.535 17.4869V45.1151H93.7983Z" fill="black"/>
<path d="M154.866 29.0143V21.3711H164.353C165.56 21.3711 166.662 21.1205 167.661 20.6193C168.66 20.1182 169.45 19.3873 170.033 18.4266C170.615 17.466 170.907 16.2966 170.907 14.9183C170.907 13.5818 170.615 12.4332 170.033 11.4726C169.45 10.512 168.66 9.78107 167.661 9.27988C166.662 8.77868 165.56 8.52809 164.353 8.52809H154.866V0.884907H165.789C168.576 0.884907 171.094 1.44875 173.341 2.57643C175.588 3.70411 177.356 5.33299 178.646 7.46306C179.978 9.55136 180.644 12.0364 180.644 14.9183C180.644 17.8001 179.978 20.3061 178.646 22.4362C177.356 24.5245 175.588 26.1533 173.341 27.3228C171.094 28.4505 168.576 29.0143 165.789 29.0143H154.866ZM147.376 45.1151V0.884907H157.175V45.1151H147.376Z" fill="black"/>
<path d="M204.295 45.8043C200.675 45.8043 197.471 45.0316 194.683 43.4862C191.936 41.9409 189.773 39.8108 188.191 37.096C186.652 34.3395 185.882 31.207 185.882 27.6987V0.884907H195.744V28.2625C195.744 30.0167 196.118 31.5412 196.867 32.8359C197.616 34.1307 198.636 35.133 199.926 35.8431C201.257 36.5113 202.714 36.8454 204.295 36.8454C205.959 36.8454 207.416 36.5113 208.664 35.8431C209.912 35.133 210.89 34.1515 211.597 32.8986C212.346 31.6038 212.721 30.0794 212.721 28.3252V0.884907H222.583V27.7613C222.583 31.2697 221.813 34.3813 220.273 37.096C218.734 39.8108 216.591 41.9409 213.844 43.4862C211.098 45.0316 207.915 45.8043 204.295 45.8043Z" fill="black"/>
<path d="M240.948 45.1151V1.5114H250.747V45.1151H240.948ZM227.154 9.46782V0.884907H264.541V9.46782H227.154Z" fill="black"/>
<path d="M270.013 45.1151V0.884907H279.812V45.1151H270.013ZM277.503 45.1151V36.5949H301.658V45.1151H277.503ZM277.503 26.6337V18.4266H299.473V26.6337H277.503ZM277.503 9.34253V0.884907H301.346V9.34253H277.503Z" fill="black"/>
<path d="M315.903 26.8843V19.617H325.203C327.159 19.617 328.657 19.1158 329.697 18.1134C330.779 17.111 331.32 15.7536 331.32 14.0412C331.32 12.4541 330.8 11.1385 329.76 10.0943C328.72 9.05016 327.222 8.52809 325.266 8.52809H315.903V0.884907H326.389C329.302 0.884907 331.861 1.44875 334.066 2.57643C336.272 3.66235 337.999 5.18681 339.247 7.14981C340.495 9.11281 341.119 11.3682 341.119 13.9159C341.119 16.5054 340.495 18.7816 339.247 20.7446C337.999 22.6659 336.251 24.1695 334.004 25.2554C331.757 26.3413 329.115 26.8843 326.077 26.8843H315.903ZM308.414 45.1151V0.884907H318.213V45.1151H308.414ZM332.381 45.1151L318.65 26.0698L327.638 23.6265L343.991 45.1151H332.381Z" fill="black"/>
<path d="M374.248 45.8043C370.628 45.8043 367.507 45.2195 364.886 44.0501C362.306 42.8389 359.934 41.0221 357.77 38.5996L364.137 32.2721C365.552 33.9009 367.112 35.1748 368.818 36.0937C370.566 36.9707 372.584 37.4093 374.872 37.4093C376.953 37.4093 378.555 37.0334 379.678 36.2816C380.843 35.5298 381.426 34.4857 381.426 33.1492C381.426 31.9379 381.051 30.9564 380.302 30.2047C379.553 29.4529 378.555 28.8055 377.306 28.2625C376.1 27.7196 374.747 27.1975 373.249 26.6963C371.793 26.1951 370.337 25.6313 368.88 25.0048C367.424 24.3365 366.072 23.5221 364.823 22.5615C363.617 21.5591 362.639 20.327 361.89 18.8652C361.141 17.3616 360.766 15.4821 360.766 13.2268C360.766 10.512 361.411 8.17308 362.701 6.21007C364.033 4.24707 365.864 2.76438 368.194 1.76199C370.524 0.717844 373.208 0.19577 376.245 0.19577C379.325 0.19577 382.133 0.738727 384.672 1.82464C387.251 2.91056 389.374 4.39325 391.038 6.27273L384.672 12.6003C383.34 11.222 381.988 10.1987 380.615 9.53047C379.283 8.86222 377.764 8.52809 376.058 8.52809C374.352 8.52809 373 8.86222 372.001 9.53047C371.003 10.157 370.503 11.0758 370.503 12.287C370.503 13.4147 370.878 14.3336 371.627 15.0436C372.376 15.7118 373.353 16.2966 374.56 16.7978C375.809 17.299 377.161 17.8001 378.617 18.3013C380.115 18.8025 381.592 19.3873 383.049 20.0555C384.505 20.7238 385.837 21.58 387.043 22.6241C388.292 23.6265 389.29 24.9213 390.039 26.5084C390.788 28.0537 391.163 29.9749 391.163 32.2721C391.163 36.4904 389.665 39.8108 386.669 42.2333C383.673 44.6139 379.533 45.8043 374.248 45.8043Z" fill="black"/>
<path d="M418.68 45.8043C415.393 45.8043 412.334 45.2404 409.505 44.1127C406.717 42.9433 404.262 41.3144 402.14 39.2261C400.059 37.1378 398.436 34.7154 397.271 31.9588C396.106 29.1605 395.524 26.1533 395.524 22.9374C395.524 19.7214 396.106 16.7351 397.271 13.9786C398.436 11.1802 400.059 8.7578 402.14 6.71127C404.22 4.66473 406.654 3.07762 409.442 1.94994C412.272 0.780494 415.33 0.19577 418.617 0.19577C422.113 0.19577 425.213 0.75961 427.917 1.88729C430.664 3.01497 433.056 4.56032 435.095 6.52332L428.542 13.1641C427.376 11.9111 425.962 10.9296 424.297 10.2196C422.674 9.50959 420.781 9.15458 418.617 9.15458C416.703 9.15458 414.935 9.48871 413.312 10.157C411.731 10.7835 410.358 11.7023 409.193 12.9135C408.069 14.1247 407.175 15.5865 406.509 17.299C405.885 19.0114 405.573 20.8908 405.573 22.9374C405.573 25.0257 405.885 26.926 406.509 28.6384C407.175 30.3508 408.069 31.8126 409.193 33.0239C410.358 34.2351 411.731 35.1748 413.312 35.8431C414.935 36.5113 416.703 36.8454 418.617 36.8454C420.864 36.8454 422.82 36.4904 424.485 35.7804C426.149 35.0704 427.585 34.0889 428.791 32.8359L435.407 39.4767C433.285 41.4397 430.851 42.9851 428.105 44.1127C425.4 45.2404 422.258 45.8043 418.68 45.8043Z" fill="black"/>
<path d="M440.803 45.1151V0.884907H450.603V45.1151H440.803Z" fill="black"/>
<path d="M459.089 45.1151V0.884907H468.888V45.1151H459.089ZM466.579 45.1151V36.5949H490.734V45.1151H466.579ZM466.579 26.6337V18.4266H488.549V26.6337H466.579ZM466.579 9.34253V0.884907H490.422V9.34253H466.579Z" fill="black"/>
<path d="M497.49 45.1151V0.884907H504.355L507.289 9.71842V45.1151H497.49ZM527.886 45.1151L501.921 11.7232L504.355 0.884907L530.32 34.2768L527.886 45.1151ZM527.886 45.1151L525.265 36.2816V0.884907H535.064V45.1151H527.886Z" fill="black"/>
<path d="M554.368 45.1151V1.5114H564.167V45.1151H554.368ZM540.574 9.46782V0.884907H577.961V9.46782H540.574Z" fill="black"/>
<path d="M583.433 45.1151V0.884907H593.232V45.1151H583.433Z" fill="black"/>
<path d="M614.098 45.8043C610.478 45.8043 607.357 45.2195 604.736 44.0501C602.156 42.8389 599.784 41.0221 597.62 38.5996L603.987 32.2721C605.401 33.9009 606.962 35.1748 608.668 36.0937C610.415 36.9707 612.433 37.4093 614.722 37.4093C616.803 37.4093 618.405 37.0334 619.528 36.2816C620.693 35.5298 621.276 34.4857 621.276 33.1492C621.276 31.9379 620.901 30.9564 620.152 30.2047C619.403 29.4529 618.405 28.8055 617.156 28.2625C615.95 27.7196 614.597 27.1975 613.099 26.6963C611.643 26.1951 610.186 25.6313 608.73 25.0048C607.274 24.3365 605.921 23.5221 604.673 22.5615C603.466 21.5591 602.489 20.327 601.74 18.8652C600.991 17.3616 600.616 15.4821 600.616 13.2268C600.616 10.512 601.261 8.17308 602.551 6.21007C603.883 4.24707 605.713 2.76438 608.044 1.76199C610.374 0.717844 613.058 0.19577 616.095 0.19577C619.174 0.19577 621.983 0.738727 624.521 1.82464C627.101 2.91056 629.223 4.39325 630.888 6.27273L624.521 12.6003C623.19 11.222 621.837 10.1987 620.464 9.53047C619.133 8.86222 617.614 8.52809 615.908 8.52809C614.202 8.52809 612.85 8.86222 611.851 9.53047C610.852 10.157 610.353 11.0758 610.353 12.287C610.353 13.4147 610.727 14.3336 611.476 15.0436C612.225 15.7118 613.203 16.2966 614.41 16.7978C615.658 17.299 617.011 17.8001 618.467 18.3013C619.965 18.8025 621.442 19.3873 622.899 20.0555C624.355 20.7238 625.686 21.58 626.893 22.6241C628.141 23.6265 629.14 24.9213 629.889 26.5084C630.638 28.0537 631.013 29.9749 631.013 32.2721C631.013 36.4904 629.515 39.8108 626.519 42.2333C623.523 44.6139 619.382 45.8043 614.098 45.8043Z" fill="black"/>
<path d="M646.407 45.1151V1.5114H656.206V45.1151H646.407ZM632.613 9.46782V0.884907H670V9.46782H632.613Z" fill="black"/>
</svg>
